<?xml version="1.0" encoding="UTF-8"?>
<!DOCTYPE svg PUBLIC "-//W3C//DTD SVG 1.1//EN" "http://www.w3.org/Graphics/SVG/1.1/DTD/svg11.dtd">
<svg xmlns="http://www.w3.org/2000/svg" version="1.1" width="128px" height="128px" style="shape-rendering:geometricPrecision; text-rendering:geometricPrecision; image-rendering:optimizeQuality; fill-rule:evenodd; clip-rule:evenodd" xmlns:xlink="http://www.w3.org/1999/xlink">
<g><path style="opacity:1" fill="#3667cc" d="M -0.5,-0.5 C 42.1667,-0.5 84.8333,-0.5 127.5,-0.5C 127.5,42.1667 127.5,84.8333 127.5,127.5C 84.8333,127.5 42.1667,127.5 -0.5,127.5C -0.5,84.8333 -0.5,42.1667 -0.5,-0.5 Z"/></g>
<g><path style="opacity:1" fill="#f4f6fc" d="M 46.5,11.5 C 54.84,11.3336 63.1733,11.5003 71.5,12C 83.7852,16.4045 88.2852,24.9045 85,37.5C 82.227,43.9405 77.3937,47.7738 70.5,49C 65.4671,49.171 60.4671,49.671 55.5,50.5C 64.1475,51.3319 72.8142,51.8319 81.5,52C 102.426,58.2494 110.926,72.0827 107,93.5C 102.048,105.452 93.2145,112.619 80.5,115C 67.4519,115.9 54.4519,115.567 41.5,114C 23.1678,106.505 16.0011,93.0051 20,73.5C 22.7898,66.5361 27.2898,60.8694 33.5,56.5C 31.2249,44.7165 35.2249,35.7165 45.5,29.5C 46.4959,23.5368 46.8293,17.5368 46.5,11.5 Z"/></g>
<g><path style="opacity:1" fill="#3667cc" d="M 53.5,19.5 C 59.1764,19.3339 64.8431,19.5006 70.5,20C 78.0741,22.5339 80.5741,27.7005 78,35.5C 76.7494,38.3807 74.5827,40.214 71.5,41C 64.726,41.0779 58.0594,41.7446 51.5,43C 45.745,49.1367 46.4117,54.47 53.5,59C 63.1667,59.3333 72.8333,59.6667 82.5,60C 100.884,67.815 105.384,80.6483 96,98.5C 92.3811,102.115 88.2144,104.949 83.5,107C 70.1667,107.667 56.8333,107.667 43.5,107C 30.658,101.823 25.158,92.3227 27,78.5C 28.9671,69.1987 34.4671,63.0321 43.5,60C 38.0204,50.1104 40.0204,42.1104 49.5,36C 56.6856,34.9718 63.8523,34.1385 71,33.5C 71.8959,30.975 71.3959,28.8083 69.5,27C 64.1771,26.5006 58.8437,26.334 53.5,26.5C 53.5,24.1667 53.5,21.8333 53.5,19.5 Z"/></g>
<g><path style="opacity:1" fill="#f2f5fb" d="M 46.5,66.5 C 57.505,66.3335 68.505,66.5002 79.5,67C 93.9465,71.7532 97.4465,80.9198 90,94.5C 87.5925,96.9561 84.7591,98.7894 81.5,100C 69.5,100.667 57.5,100.667 45.5,100C 36.0184,95.8708 32.1851,88.7042 34,78.5C 36.769,72.8947 40.9356,68.8947 46.5,66.5 Z"/></g>
<g><path style="opacity:1" fill="#3365cb" d="M 46.5,74.5 C 57.8382,74.3335 69.1716,74.5001 80.5,75C 86.372,78.0156 87.872,82.5156 85,88.5C 83.786,90.0488 82.286,91.2155 80.5,92C 69.1667,92.6667 57.8333,92.6667 46.5,92C 42.9158,90.3362 41.2492,87.5029 41.5,83.5C 41.3769,79.4052 43.0435,76.4052 46.5,74.5 Z"/></g>
</svg>
